<svg width="21" height="17" viewBox="0 0 21 17" fill="none" xmlns="http://www.w3.org/2000/svg">
<path d="M13.8335 11.8333L10.5002 8.5M10.5002 8.5L7.16688 11.8333M10.5002 8.5V16M17.4919 13.825C18.3047 13.3819 18.9467 12.6807 19.3168 11.8322C19.6868 10.9836 19.7637 10.036 19.5354 9.13891C19.307 8.24179 18.7865 7.44626 18.0558 6.87787C17.3251 6.30948 16.4259 6.00061 15.5002 6H14.4502C14.198 5.02436 13.7278 4.11861 13.0752 3.35082C12.4225 2.58304 11.6042 1.97321 10.682 1.56717C9.75967 1.16113 8.75734 0.969462 7.75031 1.00657C6.74328 1.04367 5.75777 1.30858 4.86786 1.78138C3.97795 2.25419 3.2068 2.92258 2.6124 3.73631C2.01799 4.55005 1.61579 5.48794 1.43603 6.47949C1.25627 7.47104 1.30363 8.49044 1.57456 9.46105C1.84548 10.4317 2.33291 11.3282 3.00021 12.0833" stroke="#475467" stroke-width="1.66667" stroke-linecap="round" stroke-linejoin="round"/>
</svg>
